<?xml version="1.0" encoding="UTF-8" standalone="no"?> <svg width="48" height="48" viewBox="0 0 48 48" fill="none" xmlns="http://www.w3.org/2000/svg">
<path d="M11 21.83C11 22.0952 11.1054 22.3496 11.2929 22.5371C11.4804 22.7246 11.7348 22.83 12 22.83H15.58C15.8969 24.2291 16.448 25.5646 17.21 26.78L14.682 29.308C14.4945 29.4955 14.3892 29.7498 14.3892 30.015C14.3892 30.2802 14.4945 30.5345 14.682 30.722L17.282 33.322C17.4695 33.5095 17.7238 33.6148 17.989 33.6148C18.2542 33.6148 18.5085 33.5095 18.696 33.322L21.22 30.79C22.4385 31.5415 23.7733 32.0856 25.17 32.4V36C25.17 36.2652 25.2754 36.5196 25.4629 36.7071C25.6504 36.8946 25.9048 37 26.17 37H29.83C30.0952 37 30.3496 36.8946 30.5371 36.7071C30.7246 36.5196 30.83 36.2652 30.83 36V32.4C32.2267 32.0856 33.5615 31.5415 34.78 30.79L37.308 33.318C37.4955 33.5055 37.7498 33.6108 38.015 33.6108C38.2802 33.6108 38.5345 33.5055 38.722 33.318L41.322 30.718C41.5095 30.5305 41.6148 30.2762 41.6148 30.011C41.6148 29.7458 41.5095 29.4915 41.322 29.304L38.79 26.78C39.552 25.5646 40.1031 24.2291 40.42 22.83H44C44.2652 22.83 44.5196 22.7246 44.7071 22.5371C44.8946 22.3496 45 22.0952 45 21.83V18.17C45 17.9048 44.8946 17.6504 44.7071 17.4629C44.5196 17.2754 44.2652 17.17 44 17.17H40.42C40.1031 15.7709 39.552 14.4354 38.79 13.22L41.318 10.692C41.5055 10.5045 41.6108 10.2502 41.6108 9.985C41.6108 9.71984 41.5055 9.46553 41.318 9.278L38.718 6.678C38.5305 6.49053 38.2762 6.38521 38.011 6.38521C37.7458 6.38521 37.4915 6.49053 37.304 6.678L34.78 9.21C33.5615 8.45849 32.2267 7.91443 30.83 7.6V4C30.83 3.73478 30.7246 3.48043 30.5371 3.29289C30.3496 3.10536 30.0952 3 29.83 3H26.17C25.9048 3 25.6504 3.10536 25.4629 3.29289C25.2754 3.48043 25.17 3.73478 25.17 4V7.6C23.7733 7.91443 22.4385 8.45849 21.22 9.21L18.692 6.682C18.5045 6.49453 18.2502 6.38921 17.985 6.38921C17.7198 6.38921 17.4655 6.49453 17.278 6.682L14.678 9.282C14.4905 9.46953 14.3852 9.72384 14.3852 9.989C14.3852 10.2542 14.4905 10.5085 14.678 10.696L17.21 13.22C16.448 14.4354 15.8969 15.7709 15.58 17.17H12C11.7348 17.17 11.4804 17.2754 11.2929 17.4629C11.1054 17.6504 11 17.9048 11 18.17V21.83Z" fill="#7B8C8C"/>
<path d="M27.9999 26.3099C31.4849 26.3099 34.3099 23.4849 34.3099 19.9999C34.3099 16.515 31.4849 13.6899 27.9999 13.6899C24.515 13.6899 21.6899 16.515 21.6899 19.9999C21.6899 23.4849 24.515 26.3099 27.9999 26.3099Z" fill="#D9E1E2"/>
<path d="M26 31H23.769C23.5441 30.0129 23.1532 29.0712 22.613 28.215L24.192 26.636C24.3795 26.4485 24.4848 26.1942 24.4848 25.929C24.4848 25.6638 24.3795 25.4095 24.192 25.222L22.778 23.808C22.5905 23.6205 22.3362 23.5152 22.071 23.5152C21.8058 23.5152 21.5515 23.6205 21.364 23.808L19.785 25.387C18.9271 24.8541 17.9856 24.4694 17 24.249V22C17 21.7348 16.8946 21.4804 16.7071 21.2929C16.5196 21.1054 16.2652 21 16 21H14C13.7348 21 13.4804 21.1054 13.2929 21.2929C13.1054 21.4804 13 21.7348 13 22V24.249C12.0144 24.4694 11.0729 24.8541 10.215 25.387L8.636 23.808C8.44847 23.6205 8.19416 23.5152 7.929 23.5152C7.66384 23.5152 7.40953 23.6205 7.222 23.808L5.808 25.222C5.62053 25.4095 5.51521 25.6638 5.51521 25.929C5.51521 26.1942 5.62053 26.4485 5.808 26.636L7.387 28.215C6.84681 29.0712 6.45592 30.0129 6.231 31H4C3.73478 31 3.48043 31.1054 3.29289 31.2929C3.10536 31.4804 3 31.7348 3 32V34C3 34.2652 3.10536 34.5196 3.29289 34.7071C3.48043 34.8946 3.73478 35 4 35H6.231C6.45592 35.9871 6.84681 36.9288 7.387 37.785L5.808 39.364C5.62053 39.5515 5.51521 39.8058 5.51521 40.071C5.51521 40.3362 5.62053 40.5905 5.808 40.778L7.222 42.192C7.40953 42.3795 7.66384 42.4848 7.929 42.4848C8.19416 42.4848 8.44847 42.3795 8.636 42.192L10.215 40.613C11.0729 41.1459 12.0144 41.5306 13 41.751V44C13 44.2652 13.1054 44.5196 13.2929 44.7071C13.4804 44.8946 13.7348 45 14 45H16C16.2652 45 16.5196 44.8946 16.7071 44.7071C16.8946 44.5196 17 44.2652 17 44V41.751C17.9856 41.5306 18.9271 41.1459 19.785 40.613L21.364 42.192C21.5515 42.3795 21.8058 42.4848 22.071 42.4848C22.3362 42.4848 22.5905 42.3795 22.778 42.192L24.192 40.778C24.3795 40.5905 24.4848 40.3362 24.4848 40.071C24.4848 39.8058 24.3795 39.5515 24.192 39.364L22.613 37.785C23.1532 36.9288 23.5441 35.9871 23.769 35H26C26.2652 35 26.5196 34.8946 26.7071 34.7071C26.8946 34.5196 27 34.2652 27 34V32C27 31.7348 26.8946 31.4804 26.7071 31.2929C26.5196 31.1054 26.2652 31 26 31Z" fill="#7B8C8C"/>
<path d="M15 37C17.2091 37 19 35.2091 19 33C19 30.7909 17.2091 29 15 29C12.7909 29 11 30.7909 11 33C11 35.2091 12.7909 37 15 37Z" fill="#EAEFF0"/>
<path d="M29.83 38H29.35C29.0848 38 28.8304 37.8946 28.6429 37.7071C28.4554 37.5196 28.35 37.2652 28.35 37C28.35 36.7348 28.4554 36.4804 28.6429 36.2929C28.8304 36.1054 29.0848 36 29.35 36H29.83V32.4C29.8303 32.1743 29.9069 31.9553 30.0474 31.7786C30.1879 31.6019 30.3841 31.478 30.604 31.427C31.8928 31.1361 33.1247 30.6343 34.25 29.942C34.4418 29.8222 34.6685 29.7709 34.8931 29.7965C35.1178 29.8221 35.3271 29.9231 35.487 30.083L38.015 32.611L40.615 30.011L38.087 27.483C37.9271 27.3231 37.8261 27.1138 37.8005 26.8891C37.7749 26.6645 37.8262 26.4378 37.946 26.246C38.6478 25.126 39.1549 23.8953 39.446 22.606C39.496 22.3845 39.6198 22.1866 39.7972 22.0448C39.9746 21.9031 40.1949 21.8259 40.422 21.826H44V18.17H40.42C40.1929 18.1701 39.9726 18.0929 39.7952 17.9512C39.6178 17.8094 39.494 17.6115 39.444 17.39C39.1529 16.1007 38.6458 14.87 37.944 13.75C37.8242 13.5582 37.7729 13.3315 37.7985 13.1069C37.8241 12.8822 37.9251 12.6729 38.085 12.513L40.613 9.985L38.013 7.385L35.487 9.917C35.3271 10.0769 35.1178 10.1779 34.8931 10.2035C34.6685 10.2291 34.4418 10.1778 34.25 10.058C33.1236 9.36526 31.8902 8.86381 30.6 8.574C30.3807 8.52217 30.1853 8.39777 30.0455 8.22098C29.9058 8.04418 29.8298 7.82536 29.83 7.6V4H26.17V7.6C26.17 7.82591 26.0935 8.04515 25.9529 8.22202C25.8124 8.39888 25.6161 8.52295 25.396 8.574C24.1071 8.86423 22.8752 9.36566 21.75 10.058C21.5582 10.1778 21.3315 10.2291 21.1069 10.2035C20.8822 10.1779 20.6729 10.0769 20.513 9.917L17.985 7.389L15.385 9.989L17.913 12.517C18.0729 12.6769 18.1739 12.8862 18.1995 13.1109C18.2251 13.3355 18.1738 13.5622 18.054 13.754C17.3522 14.874 16.8451 16.1047 16.554 17.394C16.504 17.6155 16.3802 17.8134 16.2028 17.9552C16.0254 18.0969 15.8051 18.1741 15.578 18.174H12V18.654C12 18.9192 11.8946 19.1736 11.7071 19.3611C11.5196 19.5486 11.2652 19.654 11 19.654C10.7348 19.654 10.4804 19.5486 10.2929 19.3611C10.1054 19.1736 10 18.9192 10 18.654V18.174C10 17.6436 10.2107 17.1349 10.5858 16.7598C10.9609 16.3847 11.4696 16.174 12 16.174H14.805C15.0854 15.2048 15.4717 14.2695 15.957 13.385L13.975 11.4C13.6004 11.025 13.3899 10.5166 13.3899 9.9865C13.3899 9.45642 13.6004 8.94801 13.975 8.573L16.575 5.973C16.76 5.78693 16.98 5.63935 17.2224 5.53877C17.4647 5.43819 17.7246 5.38661 17.987 5.387C18.2497 5.38623 18.51 5.43764 18.7528 5.53823C18.9955 5.63882 19.2158 5.7866 19.401 5.973L21.385 7.956C22.2701 7.48083 23.2038 7.10232 24.17 6.827V4C24.17 3.46957 24.3807 2.96086 24.7558 2.58579C25.1309 2.21071 25.6396 2 26.17 2H29.83C30.3604 2 30.8691 2.21071 31.2442 2.58579C31.6193 2.96086 31.83 3.46957 31.83 4V6.827C32.7969 7.10282 33.7313 7.48201 34.617 7.958L36.6 5.975C36.7857 5.7892 37.0062 5.64181 37.2489 5.54125C37.4917 5.44069 37.7518 5.38893 38.0145 5.38893C38.2772 5.38893 38.5373 5.44069 38.7801 5.54125C39.0228 5.64181 39.2433 5.7892 39.429 5.975L42.024 8.575C42.3986 8.95001 42.6091 9.45842 42.6091 9.9885C42.6091 10.5186 42.3986 11.027 42.024 11.402L40.041 13.385C40.5284 14.268 40.9171 15.2019 41.2 16.17H44C44.5304 16.17 45.0391 16.3807 45.4142 16.7558C45.7893 17.1309 46 17.6396 46 18.17V21.83C46 22.3604 45.7893 22.8691 45.4142 23.2442C45.0391 23.6193 44.5304 23.83 44 23.83H41.2C40.9194 24.7991 40.5331 25.7344 40.048 26.619L42.025 28.6C42.3999 28.9751 42.6106 29.4837 42.6106 30.014C42.6106 30.5443 42.3999 31.0529 42.025 31.428L39.425 34.028C39.05 34.4026 38.5416 34.6131 38.0115 34.6131C37.4814 34.6131 36.973 34.4026 36.598 34.028L34.613 32.043C33.7278 32.5205 32.7933 32.9004 31.826 33.176V36C31.826 36.5297 31.6158 37.0378 31.2416 37.4128C30.8674 37.7878 30.3597 37.9989 29.83 38Z" fill="black"/>
<path d="M28 27.3099C27.7331 27.3105 27.4768 27.2058 27.2866 27.0186C27.0964 26.8314 26.9877 26.5768 26.984 26.3099C26.9823 26.1793 27.0065 26.0497 27.0553 25.9285C27.104 25.8073 27.1764 25.697 27.2681 25.604C27.3598 25.5109 27.4691 25.4371 27.5896 25.3866C27.7101 25.3361 27.8394 25.3101 27.97 25.3099H28C29.0502 25.3099 30.0769 24.9985 30.9501 24.415C31.8233 23.8316 32.5039 23.0023 32.9058 22.032C33.3077 21.0617 33.4129 19.9941 33.208 18.964C33.0031 17.934 32.4974 16.9878 31.7547 16.2452C31.0121 15.5026 30.066 14.9969 29.0359 14.792C28.0059 14.5871 26.9382 14.6922 25.968 15.0941C24.9977 15.496 24.1684 16.1766 23.5849 17.0499C23.0014 17.9231 22.69 18.9497 22.69 19.9999C22.6906 20.2667 22.5858 20.5229 22.3986 20.713C22.2114 20.903 21.9568 21.0115 21.69 21.0149C21.5595 21.0165 21.43 20.9922 21.3089 20.9435C21.1879 20.8947 21.0777 20.8225 20.9847 20.7309C20.8917 20.6393 20.8178 20.5302 20.7672 20.4099C20.7166 20.2896 20.6904 20.1605 20.69 20.0299C20.6841 18.5829 21.1077 17.1666 21.9073 15.9606C22.707 14.7545 23.8465 13.8129 25.1817 13.255C26.5169 12.6972 27.9877 12.5481 29.4076 12.8268C30.8276 13.1054 32.1329 13.7993 33.1583 14.8204C34.1836 15.8415 34.8828 17.144 35.1673 18.5628C35.4518 19.9816 35.3088 21.4529 34.7564 22.7904C34.204 24.1279 33.2671 25.2713 32.0643 26.0759C30.8616 26.8804 29.4471 27.3099 28 27.3099V27.3099Z" fill="black"/>
<path d="M16 46H14C13.4696 46 12.9609 45.7893 12.5858 45.4142C12.2107 45.0391 12 44.5304 12 44V42.517C11.443 42.3449 10.9019 42.1248 10.383 41.859L9.343 42.9C8.96795 43.2749 8.45933 43.4856 7.929 43.4856C7.39867 43.4856 6.89006 43.2749 6.515 42.9L5.1 41.485C4.72506 41.1099 4.51443 40.6013 4.51443 40.071C4.51443 39.5407 4.72506 39.0321 5.1 38.657L6.138 37.619C5.86602 37.1005 5.64112 36.5587 5.466 36H4C3.46957 36 2.96086 35.7893 2.58579 35.4142C2.21071 35.0391 2 34.5304 2 34V32C2 31.4696 2.21071 30.9609 2.58579 30.5858C2.96086 30.2107 3.46957 30 4 30H5.466C5.64144 29.4413 5.86668 28.8994 6.139 28.381L5.1 27.343C4.72506 26.9679 4.51443 26.4593 4.51443 25.929C4.51443 25.3987 4.72506 24.8901 5.1 24.515L6.515 23.1C6.89006 22.7251 7.39867 22.5144 7.929 22.5144C8.45933 22.5144 8.96795 22.7251 9.343 23.1L10.383 24.14C10.9018 23.8742 11.4428 23.6543 12 23.483V22C12 21.4696 12.2107 20.9609 12.5858 20.5858C12.9609 20.2107 13.4696 20 14 20H16C16.5304 20 17.0391 20.2107 17.4142 20.5858C17.7893 20.9609 18 21.4696 18 22V23.483C18.5572 23.6546 19.0983 23.8748 19.617 24.141L20.657 23.101C21.0321 22.7261 21.5407 22.5154 22.071 22.5154C22.6013 22.5154 23.1099 22.7261 23.485 23.101L24.9 24.515C25.2749 24.8901 25.4856 25.3987 25.4856 25.929C25.4856 26.4593 25.2749 26.9679 24.9 27.343L23.862 28.381C24.134 28.8995 24.3589 29.4413 24.534 30H26C26.5304 30 27.0391 30.2107 27.4142 30.5858C27.7893 30.9609 28 31.4696 28 32V34C28 34.5304 27.7893 35.0391 27.4142 35.4142C27.0391 35.7893 26.5304 36 26 36H24.534C24.3586 36.5587 24.1333 37.1006 23.861 37.619L24.9 38.657C25.2749 39.0321 25.4856 39.5407 25.4856 40.071C25.4856 40.6013 25.2749 41.1099 24.9 41.485L23.485 42.9C23.1099 43.2749 22.6013 43.4856 22.071 43.4856C21.5407 43.4856 21.0321 43.2749 20.657 42.9L19.617 41.86C19.098 42.1254 18.557 42.3452 18 42.517V44C18 44.5304 17.7893 45.0391 17.4142 45.4142C17.0391 45.7893 16.5304 46 16 46V46ZM10.215 39.613C10.4033 39.6132 10.5877 39.6666 10.747 39.767C11.5108 40.2395 12.3484 40.5806 13.225 40.776C13.4454 40.8269 13.6421 40.951 13.7828 41.1281C13.9236 41.3052 14.0001 41.5248 14 41.751V44H16V41.751C15.9999 41.5248 16.0764 41.3052 16.2172 41.1281C16.3579 40.951 16.5546 40.8269 16.775 40.776C17.6516 40.5806 18.4892 40.2395 19.253 39.767C19.4447 39.6464 19.6717 39.5945 19.8968 39.6198C20.1219 39.645 20.3317 39.7459 20.492 39.906L22.071 41.485L23.485 40.071L21.906 38.492C21.7459 38.3316 21.645 38.1215 21.6199 37.8962C21.5948 37.6709 21.647 37.4437 21.768 37.252C22.2493 36.4916 22.5983 35.6551 22.8 34.778C22.8501 34.5579 22.9733 34.3612 23.1494 34.2199C23.3255 34.0786 23.5442 34.0011 23.77 34H26V32H23.77C23.5434 32 23.3235 31.923 23.1463 31.7817C22.9692 31.6403 22.8453 31.443 22.795 31.222C22.5948 30.3453 22.2476 29.5088 21.768 28.748C21.647 28.5563 21.5948 28.3291 21.6199 28.1038C21.645 27.8785 21.7459 27.6684 21.906 27.508L23.485 25.929L22.071 24.515L20.492 26.094C20.3316 26.2541 20.1215 26.355 19.8962 26.3801C19.6709 26.4052 19.4437 26.353 19.252 26.232C18.4887 25.7594 17.6514 25.4186 16.775 25.224C16.5546 25.1731 16.3579 25.049 16.2172 24.8719C16.0764 24.6948 15.9999 24.4752 16 24.249V22H14V24.249C14.0001 24.4752 13.9236 24.6948 13.7828 24.8719C13.6421 25.049 13.4454 25.1731 13.225 25.224C12.3486 25.4186 11.5113 25.7594 10.748 26.232C10.5563 26.353 10.3291 26.4052 10.1038 26.3801C9.87854 26.355 9.66844 26.2541 9.508 26.094L7.929 24.515L6.515 25.929L8.094 27.508C8.25414 27.6684 8.35502 27.8785 8.3801 28.1038C8.40517 28.3291 8.35295 28.5563 8.232 28.748C7.75244 29.5088 7.40519 30.3453 7.205 31.222C7.15469 31.443 7.03081 31.6403 6.85367 31.7817C6.67653 31.923 6.45663 32 6.23 32H4V34H6.23C6.45663 34 6.67653 34.077 6.85367 34.2183C7.03081 34.3597 7.15469 34.557 7.205 34.778C7.40519 35.6547 7.75244 36.4912 8.232 37.252C8.35295 37.4437 8.40517 37.6709 8.3801 37.8962C8.35502 38.1215 8.25414 38.3316 8.094 38.492L6.515 40.071L7.929 41.485L9.508 39.906C9.69549 39.7184 9.94981 39.6131 10.215 39.613V39.613Z" fill="black"/>
<path d="M15 38C14.0111 38 13.0444 37.7068 12.2222 37.1574C11.3999 36.6079 10.759 35.8271 10.3806 34.9134C10.0022 33.9998 9.90315 32.9945 10.0961 32.0246C10.289 31.0546 10.7652 30.1637 11.4645 29.4645C12.1637 28.7652 13.0546 28.289 14.0246 28.0961C14.9945 27.9031 15.9998 28.0022 16.9134 28.3806C17.8271 28.759 18.6079 29.3999 19.1574 30.2222C19.7068 31.0444 20 32.0111 20 33C19.9984 34.3256 19.4711 35.5964 18.5338 36.5338C17.5964 37.4711 16.3256 37.9984 15 38V38ZM15 30C14.4067 30 13.8266 30.1759 13.3333 30.5056C12.8399 30.8352 12.4554 31.3038 12.2284 31.852C12.0013 32.4001 11.9419 33.0033 12.0576 33.5853C12.1734 34.1672 12.4591 34.7018 12.8787 35.1213C13.2982 35.5409 13.8328 35.8266 14.4147 35.9424C14.9967 36.0581 15.5999 35.9987 16.1481 35.7716C16.6962 35.5446 17.1648 35.1601 17.4944 34.6667C17.8241 34.1734 18 33.5933 18 33C18 32.2044 17.6839 31.4413 17.1213 30.8787C16.5587 30.3161 15.7957 30 15 30V30Z" fill="black"/>
</svg>
