<?xml version="1.0" encoding="UTF-8" standalone="no"?> <svg width="48" height="48" viewBox="0 0 48 48" fill="none" xmlns="http://www.w3.org/2000/svg">
<path d="M11.19 35.92L3.8 26.07C3.28225 25.3768 3.00172 24.5352 3 23.67V19C3.00158 18.4701 3.2128 17.9623 3.58753 17.5875C3.96227 17.2128 4.47005 17.0016 5 17H43C43.5299 17.0016 44.0377 17.2128 44.4125 17.5875C44.7872 17.9623 44.9984 18.4701 45 19V23.67C44.9983 24.5352 44.7177 25.3768 44.2 26.07L36.81 35.92H11.19Z" fill="#E67244"/>
<path d="M3.02686 24C3.08611 24.7487 3.35389 25.4657 3.79986 26.07L11.1899 35.92H36.8099L44.1999 26.07C44.6458 25.4657 44.9136 24.7487 44.9729 24H3.02686Z" fill="#C6512B"/>
<path d="M11.7688 40.264L10.1508 28.132C10.132 27.9908 10.1436 27.8472 10.1848 27.7108C10.226 27.5745 10.2958 27.4485 10.3897 27.3413C10.4835 27.2341 10.5992 27.1482 10.7289 27.0894C10.8586 27.0305 10.9994 27 11.1418 27H36.8578C37.0003 27 37.1411 27.0305 37.2708 27.0894C37.4005 27.1482 37.5162 27.2341 37.61 27.3413C37.7038 27.4485 37.7737 27.5745 37.8149 27.7108C37.8561 27.8472 37.8676 27.9908 37.8488 28.132L36.2308 40.264C36.1669 40.7444 35.9307 41.1852 35.5661 41.5045C35.2015 41.8238 34.7335 41.9999 34.2488 42H13.7488C13.2646 41.9994 12.797 41.8231 12.4328 41.5038C12.0687 41.1846 11.8328 40.744 11.7688 40.264Z" fill="#AF4123"/>
<path d="M14.1595 5.01239L12.7453 6.42661C11.9642 7.20766 11.9642 8.47399 12.7453 9.25503C13.5263 10.0361 14.7926 10.0361 15.5737 9.25503L16.9879 7.84082C17.769 7.05977 17.769 5.79344 16.9879 5.01239C16.2069 4.23135 14.9405 4.23134 14.1595 5.01239Z" fill="#2D4A60"/>
<path d="M33.8408 5.01303C33.0597 4.23199 31.7934 4.23199 31.0124 5.01303C30.2313 5.79408 30.2313 7.06041 31.0124 7.84146L32.4266 9.25567C33.2076 10.0367 34.4739 10.0367 35.255 9.25567C36.036 8.47463 36.036 7.2083 35.255 6.42725L33.8408 5.01303Z" fill="#2D4A60"/>
<path d="M43 16.0001H39V13.6601C38.997 12.3345 38.4713 11.0635 37.537 10.1231L36.537 9.1231C36.8087 8.56595 36.899 7.93764 36.7952 7.32652C36.6913 6.71539 36.3985 6.15219 35.958 5.7161L34.548 4.3061C34.2713 4.01956 33.9402 3.79102 33.5742 3.63379C33.2082 3.47656 32.8145 3.39381 32.4162 3.39034C32.0179 3.38688 31.6228 3.46279 31.2541 3.61363C30.8854 3.76447 30.5505 3.98723 30.2688 4.26891C29.9871 4.55059 29.7644 4.88554 29.6135 5.25423C29.4627 5.62292 29.3868 6.01796 29.3902 6.4163C29.3937 6.81464 29.4765 7.2083 29.6337 7.57431C29.7909 7.94032 30.0195 8.27136 30.306 8.5481L31.72 9.9621C32.1561 10.4026 32.7193 10.6954 33.3304 10.7993C33.9415 10.9031 34.5699 10.8128 35.127 10.5411L36.127 11.5411C36.6851 12.1053 36.9987 12.8665 37 13.6601V16.0001H11V13.6601C11.0013 12.8645 11.3164 12.1016 11.877 11.5371L12.877 10.5371C13.4341 10.8088 14.0625 10.8991 14.6736 10.7953C15.2847 10.6914 15.8479 10.3986 16.284 9.9581L17.698 8.5441C17.9845 8.26735 18.2131 7.93632 18.3703 7.57031C18.5275 7.2043 18.6103 6.81064 18.6138 6.4123C18.6172 6.01396 18.5413 5.61892 18.3905 5.25023C18.2396 4.88154 18.0169 4.54659 17.7352 4.26491C17.4535 3.98323 17.1186 3.76047 16.7499 3.60963C16.3812 3.45879 15.9861 3.38288 15.5878 3.38634C15.1895 3.38981 14.7958 3.47256 14.4298 3.62979C14.0638 3.78702 13.7327 4.01556 13.456 4.3021L12.038 5.72009C11.5975 6.15619 11.3047 6.71939 11.2008 7.33052C11.097 7.94164 11.1873 8.56995 11.459 9.1271L10.459 10.1271C9.52717 11.0672 9.00303 12.3364 9 13.6601V16.0001H5C4.20435 16.0001 3.44129 16.3162 2.87868 16.8788C2.31607 17.4414 2 18.2044 2 19.0001V23.6701C2.0005 24.7519 2.35134 25.8044 3 26.6701L10.233 36.3091L10.777 40.3951C10.875 41.1151 11.23 41.7753 11.7766 42.2541C12.3231 42.7328 13.0244 42.9978 13.751 43.0001H34.251C34.9768 42.998 35.6775 42.7337 36.224 42.256C36.7704 41.7782 37.1259 41.1192 37.225 40.4001L37.769 36.3141L45 26.6661C45.6491 25.8006 46 24.7479 46 23.6661V19.0001C46 18.2044 45.6839 17.4414 45.1213 16.8788C44.5587 16.3162 43.7956 16.0001 43 16.0001V16.0001ZM33.134 8.5481L31.72 7.13409C31.5378 6.94549 31.437 6.69289 31.4393 6.43069C31.4416 6.1685 31.5468 5.91768 31.7322 5.73228C31.9176 5.54687 32.1684 5.4417 32.4306 5.43942C32.6928 5.43714 32.9454 5.53794 33.134 5.72009L34.548 7.13409C34.7352 7.32158 34.8403 7.57568 34.8403 7.8406C34.8403 8.10551 34.7352 8.35961 34.548 8.5471V8.5471C34.3579 8.72949 34.1047 8.83141 33.8412 8.8316C33.5777 8.83179 33.3244 8.73022 33.134 8.5481V8.5481ZM13.452 7.13409L14.866 5.72009C14.9582 5.62458 15.0686 5.5484 15.1906 5.49599C15.3126 5.44358 15.4438 5.416 15.5766 5.41484C15.7094 5.41369 15.8411 5.43899 15.964 5.48927C16.0869 5.53955 16.1985 5.61381 16.2924 5.7077C16.3863 5.80159 16.4605 5.91324 16.5108 6.03614C16.5611 6.15904 16.5864 6.29072 16.5853 6.4235C16.5841 6.55628 16.5565 6.6875 16.5041 6.8095C16.4517 6.9315 16.3755 7.04185 16.28 7.13409L14.866 8.5481C14.6758 8.73006 14.4227 8.83162 14.1595 8.83162C13.8963 8.83162 13.6432 8.73006 13.453 8.5481V8.5481C13.2658 8.36061 13.1607 8.10651 13.1607 7.8416C13.1607 7.57668 13.2658 7.32258 13.453 7.1351L13.452 7.13409ZM34.249 41.0001H13.749C13.5068 41.0001 13.2729 40.9122 13.0907 40.7527C12.9084 40.5933 12.7902 40.3731 12.758 40.1331L11.143 28.0001H36.857L35.24 40.1321C35.208 40.3723 35.0899 40.5927 34.9076 40.7523C34.7254 40.912 34.4913 41 34.249 41.0001V41.0001ZM44 23.6701C44 24.3192 43.7895 24.9508 43.4 25.4701L38.308 32.2571L38.84 28.2651C38.8778 27.9825 38.8547 27.6952 38.7723 27.4222C38.69 27.1493 38.5502 26.8972 38.3624 26.6827C38.1746 26.4682 37.9432 26.2963 37.6835 26.1786C37.4239 26.0609 37.1421 26 36.857 26.0001H11.143C10.858 26 10.5763 26.0609 10.3168 26.1785C10.0572 26.2962 9.82578 26.468 9.63801 26.6823C9.45024 26.8967 9.31045 27.1487 9.22801 27.4215C9.14557 27.6943 9.12238 27.9816 9.16 28.2641L9.693 32.2571L4.6 25.4751C4.21111 24.9555 4.00065 24.3241 4 23.6751V19.0001C4 18.7349 4.10536 18.4805 4.29289 18.293C4.48043 18.1055 4.73478 18.0001 5 18.0001H43C43.2652 18.0001 43.5196 18.1055 43.7071 18.293C43.8946 18.4805 44 18.7349 44 19.0001V23.6701Z" fill="black"/>
</svg>
