<?xml version="1.0" encoding="UTF-8" standalone="no"?> <svg width="48" height="48" viewBox="0 0 48 48" fill="none" xmlns="http://www.w3.org/2000/svg">
<path d="M44.5 36H41.5V33.5C41.5 33.1022 41.658 32.7206 41.9393 32.4393C42.2206 32.158 42.6022 32 43 32V32C43.3978 32 43.7794 32.158 44.0607 32.4393C44.342 32.7206 44.5 33.1022 44.5 33.5V36Z" fill="#FAC100"/>
<path d="M43 31C43.8284 31 44.5 30.3284 44.5 29.5C44.5 28.6716 43.8284 28 43 28C42.1716 28 41.5 28.6716 41.5 29.5C41.5 30.3284 42.1716 31 43 31Z" fill="#FAC100"/>
<path d="M10.0002 19V33.313C9.99415 33.9986 10.167 34.674 10.5016 35.2725C10.8361 35.871 11.3209 36.372 11.9082 36.726C15.5773 38.8701 19.7505 40 24.0002 40C28.2498 40 32.423 38.8701 36.0921 36.726C36.6794 36.372 37.1642 35.871 37.4987 35.2725C37.8333 34.674 38.0061 33.9986 38.0002 33.313V19H10.0002Z" fill="#2D4A60"/>
<path d="M10 28.077L22.441 33.341C22.9343 33.5494 23.4645 33.6567 24 33.6567C24.5355 33.6567 25.0657 33.5494 25.559 33.341L38 28.077V19H10V28.077Z" fill="#263F52"/>
<path d="M2.35418 16.158L22.4412 7.658C22.9345 7.44964 23.4646 7.34229 24.0002 7.34229C24.5357 7.34229 25.0658 7.44964 25.5592 7.658L45.6462 16.158C46.0081 16.3111 46.317 16.5675 46.5341 16.8951C46.7513 17.2227 46.8671 17.607 46.8671 18C46.8671 18.393 46.7513 18.7773 46.5341 19.1049C46.317 19.4325 46.0081 19.6889 45.6462 19.842L25.5592 28.342C25.0658 28.5504 24.5357 28.6577 24.0002 28.6577C23.4646 28.6577 22.9345 28.5504 22.4412 28.342L2.35418 19.842C1.9922 19.6889 1.68336 19.4325 1.46623 19.1049C1.2491 18.7773 1.1333 18.393 1.1333 18C1.1333 17.607 1.2491 17.2227 1.46623 16.8951C1.68336 16.5675 1.9922 16.3111 2.35418 16.158V16.158Z" fill="#2D4A60"/>
<path d="M46.0362 15.2372L25.9482 6.7372C25.3309 6.47752 24.6679 6.34375 23.9982 6.34375C23.3285 6.34375 22.6655 6.47752 22.0482 6.7372L1.96022 15.2372C1.41726 15.4669 0.953997 15.8514 0.6283 16.3428C0.302603 16.8342 0.128906 17.4107 0.128906 18.0002C0.128906 18.5897 0.302603 19.1662 0.6283 19.6576C0.953997 20.149 1.41726 20.5335 1.96022 20.7632L9.00022 23.7402V33.3132C8.99481 34.1728 9.21325 35.019 9.63406 35.7685C10.0549 36.5181 10.6635 37.1452 11.4002 37.5882C15.2231 39.8233 19.5718 41.0013 24.0002 41.0013C28.4286 41.0013 32.7773 39.8233 36.6002 37.5882C37.3369 37.1452 37.9456 36.5181 38.3664 35.7685C38.7872 35.019 39.0056 34.1728 39.0002 33.3132V23.7402L42.0002 22.4702V27.2122C41.5985 27.3861 41.2498 27.6629 40.9892 28.0147C40.7287 28.3665 40.5656 28.7808 40.5164 29.2158C40.4672 29.6508 40.5337 30.091 40.709 30.4921C40.8844 30.8932 41.1625 31.241 41.5152 31.5002C41.2014 31.731 40.9462 32.0322 40.7699 32.3795C40.5936 32.7268 40.5013 33.1107 40.5002 33.5002V36.0002C40.5002 36.2654 40.6056 36.5198 40.7931 36.7073C40.9806 36.8948 41.235 37.0002 41.5002 37.0002H44.5002C44.7654 37.0002 45.0198 36.8948 45.2073 36.7073C45.3949 36.5198 45.5002 36.2654 45.5002 36.0002V33.5002C45.4992 33.1107 45.4068 32.7268 45.2305 32.3795C45.0543 32.0322 44.799 31.731 44.4852 31.5002C44.838 31.241 45.116 30.8932 45.2914 30.4921C45.4668 30.091 45.5332 29.6508 45.484 29.2158C45.4348 28.7808 45.2717 28.3665 45.0112 28.0147C44.7507 27.6629 44.4019 27.3861 44.0002 27.2122V21.6242L46.0362 20.7632C46.5792 20.5335 47.0424 20.149 47.3681 19.6576C47.6938 19.1662 47.8675 18.5897 47.8675 18.0002C47.8675 17.4107 47.6938 16.8342 47.3681 16.3428C47.0424 15.8514 46.5792 15.4669 46.0362 15.2372V15.2372ZM43.5002 29.5002C43.5002 29.5991 43.4709 29.6958 43.416 29.778C43.361 29.8602 43.2829 29.9243 43.1916 29.9621C43.1002 30 42.9997 30.0099 42.9027 29.9906C42.8057 29.9713 42.7166 29.9237 42.6467 29.8538C42.5767 29.7838 42.5291 29.6947 42.5098 29.5977C42.4905 29.5008 42.5004 29.4002 42.5383 29.3089C42.5761 29.2175 42.6402 29.1394 42.7224 29.0845C42.8047 29.0295 42.9013 29.0002 43.0002 29.0002C43.1328 29.0002 43.26 29.0529 43.3538 29.1466C43.4475 29.2404 43.5002 29.3676 43.5002 29.5002ZM43.5002 35.0002H42.5002V33.5002C42.5002 33.3676 42.5529 33.2404 42.6467 33.1466C42.7404 33.0529 42.8676 33.0002 43.0002 33.0002C43.1328 33.0002 43.26 33.0529 43.3538 33.1466C43.4475 33.2404 43.5002 33.3676 43.5002 33.5002V35.0002ZM37.0002 33.3132C37.006 33.8246 36.8786 34.3288 36.6305 34.7761C36.3824 35.2233 36.0222 35.5983 35.5852 35.8642C32.0698 37.9179 28.0716 39.0001 24.0002 39.0001C19.9289 39.0001 15.9307 37.9179 12.4152 35.8642C11.9783 35.5983 11.618 35.2233 11.3699 34.7761C11.1218 34.3288 10.9944 33.8246 11.0002 33.3132V24.5862L22.0522 29.2622C22.6695 29.5222 23.3325 29.6561 24.0022 29.6561C24.672 29.6561 25.335 29.5222 25.9522 29.2622L37.0002 24.5862V33.3132ZM45.2572 18.9212L25.1692 27.4212C24.7991 27.5766 24.4017 27.6567 24.0002 27.6567C23.5988 27.6567 23.2014 27.5766 22.8312 27.4212L2.74322 18.9212C2.56223 18.8446 2.40781 18.7165 2.29925 18.5527C2.19068 18.3889 2.13278 18.1967 2.13278 18.0002C2.13278 17.8037 2.19068 17.6115 2.29925 17.4477C2.40781 17.2839 2.56223 17.1558 2.74322 17.0792L22.8312 8.5792C23.2013 8.42342 23.5987 8.34318 24.0002 8.34318C24.4017 8.34318 24.7992 8.42342 25.1692 8.5792L45.2572 17.0792C45.4382 17.1558 45.5926 17.2839 45.7012 17.4477C45.8098 17.6115 45.8677 17.8037 45.8677 18.0002C45.8677 18.1967 45.8098 18.3889 45.7012 18.5527C45.5926 18.7165 45.4382 18.8446 45.2572 18.9212Z" fill="black"/>
</svg>
