<?xml version="1.0" encoding="UTF-8" standalone="no"?> <svg width="48" height="48" viewBox="0 0 48 48" fill="none" xmlns="http://www.w3.org/2000/svg">
<path d="M28 40V43C28 43.7956 27.6839 44.5587 27.1213 45.1213C26.5587 45.6839 25.7956 46 25 46H23C22.2044 46 21.4413 45.6839 20.8787 45.1213C20.3161 44.5587 20 43.7956 20 43V40H28Z" fill="#7B8C8C"/>
<path d="M30 34V40C30 40.5304 29.7893 41.0391 29.4142 41.4142C29.0391 41.7893 28.5304 42 28 42H20C19.4696 42 18.9609 41.7893 18.5858 41.4142C18.2107 41.0391 18 40.5304 18 40V34H30Z" fill="#8FA5A5"/>
<path d="M11.0002 21C11.0002 17.5522 12.3698 14.2456 14.8078 11.8076C17.2458 9.36964 20.5524 8 24.0002 8C27.448 8 30.7546 9.36964 33.1926 11.8076C35.6305 14.2456 37.0002 17.5522 37.0002 21C37.0552 22.8197 36.734 24.6312 36.0568 26.3211C35.3795 28.011 34.3607 29.5429 33.0642 30.821C32.1086 31.7274 31.345 32.8166 30.8187 34.0239C30.2923 35.2312 30.014 36.532 30.0002 37.849V38H18.0002V37.849C17.9864 36.532 17.708 35.2312 17.1817 34.0239C16.6553 32.8166 15.8917 31.7274 14.9362 30.821C13.6396 29.5429 12.6209 28.011 11.9436 26.3211C11.2663 24.6312 10.9452 22.8197 11.0002 21V21Z" fill="#FAC100"/>
<path d="M28.0002 33.0001C25.3051 33.0032 22.6666 32.2274 20.402 30.7661C18.1375 29.3048 16.3435 27.2202 15.2359 24.7633C14.1283 22.3063 13.7542 19.5816 14.1588 16.9171C14.5633 14.2525 15.7292 11.7616 17.5162 9.74414C15.5362 10.8816 13.8911 12.5211 12.7471 14.4974C11.6031 16.4736 11.0005 18.7166 11.0002 21.0001C10.9451 22.8197 11.2662 24.6311 11.9435 26.3209C12.6208 28.0106 13.6396 29.5423 14.9362 30.8201C15.8917 31.7268 16.6552 32.8162 17.1816 34.0237C17.7079 35.2311 17.9863 36.532 18.0002 37.8491V38.0001H30.0002V37.8491C30.012 35.9393 30.5942 34.0766 31.6722 32.5001C30.4758 32.8289 29.241 32.9971 28.0002 33.0001Z" fill="#FF9500"/>
<path d="M24 5C24.2652 5 24.5196 4.89464 24.7071 4.70711C24.8946 4.51957 25 4.26522 25 4V2C25 1.73478 24.8946 1.48043 24.7071 1.29289C24.5196 1.10536 24.2652 1 24 1C23.7348 1 23.4804 1.10536 23.2929 1.29289C23.1054 1.48043 23 1.73478 23 2V4C23 4.26522 23.1054 4.51957 23.2929 4.70711C23.4804 4.89464 23.7348 5 24 5Z" fill="black"/>
<path d="M43 20H41C40.7348 20 40.4804 20.1054 40.2929 20.2929C40.1054 20.4804 40 20.7348 40 21C40 21.2652 40.1054 21.5196 40.2929 21.7071C40.4804 21.8946 40.7348 22 41 22H43C43.2652 22 43.5196 21.8946 43.7071 21.7071C43.8946 21.5196 44 21.2652 44 21C44 20.7348 43.8946 20.4804 43.7071 20.2929C43.5196 20.1054 43.2652 20 43 20Z" fill="black"/>
<path d="M7 20H5C4.73478 20 4.48043 20.1054 4.29289 20.2929C4.10536 20.4804 4 20.7348 4 21C4 21.2652 4.10536 21.5196 4.29289 21.7071C4.48043 21.8946 4.73478 22 5 22H7C7.26522 22 7.51957 21.8946 7.70711 21.7071C7.89464 21.5196 8 21.2652 8 21C8 20.7348 7.89464 20.4804 7.70711 20.2929C7.51957 20.1054 7.26522 20 7 20Z" fill="black"/>
<path d="M11.2719 9.68586C11.4605 9.86802 11.7131 9.96881 11.9753 9.96653C12.2375 9.96426 12.4883 9.85909 12.6737 9.67368C12.8591 9.48827 12.9643 9.23746 12.9665 8.97526C12.9688 8.71306 12.868 8.46046 12.6859 8.27186L11.2719 6.85786C11.0833 6.6757 10.8307 6.57491 10.5685 6.57719C10.3063 6.57946 10.0554 6.68463 9.87004 6.87004C9.68463 7.05545 9.57946 7.30626 9.57719 7.56846C9.57491 7.83066 9.6757 8.08326 9.85786 8.27186L11.2719 9.68586Z" fill="black"/>
<path d="M36.7282 32.3132C36.6353 32.2204 36.525 32.1467 36.4036 32.0965C36.2823 32.0463 36.1522 32.0205 36.0208 32.0205C35.8895 32.0206 35.7594 32.0465 35.6381 32.0968C35.5168 32.1471 35.4065 32.2208 35.3137 32.3137C35.2209 32.4066 35.1472 32.5169 35.097 32.6383C35.0468 32.7596 35.0209 32.8897 35.021 33.0211C35.021 33.1524 35.047 33.2825 35.0973 33.4038C35.1476 33.5251 35.2213 33.6354 35.3142 33.7282L36.7282 35.1422C36.9168 35.3244 37.1694 35.4252 37.4316 35.4229C37.6938 35.4206 37.9446 35.3154 38.13 35.13C38.3154 34.9446 38.4206 34.6938 38.4229 34.4316C38.4251 34.1694 38.3244 33.9168 38.1422 33.7282L36.7282 32.3132Z" fill="black"/>
<path d="M36.7281 6.85802L35.3141 8.27202C35.2186 8.36427 35.1424 8.47461 35.09 8.59662C35.0376 8.71862 35.01 8.84984 35.0088 8.98262C35.0077 9.1154 35.033 9.24708 35.0833 9.36998C35.1335 9.49287 35.2078 9.60452 35.3017 9.69842C35.3956 9.79231 35.5072 9.86656 35.6301 9.91684C35.753 9.96712 35.8847 9.99243 36.0175 9.99127C36.1503 9.99012 36.2815 9.96253 36.4035 9.91012C36.5255 9.85771 36.6358 9.78153 36.7281 9.68602L38.1421 8.27202C38.2376 8.17978 38.3138 8.06943 38.3662 7.94743C38.4186 7.82542 38.4462 7.6942 38.4473 7.56142C38.4485 7.42864 38.4232 7.29696 38.3729 7.17407C38.3226 7.05117 38.2484 6.93952 38.1545 6.84563C38.0606 6.75173 37.9489 6.67748 37.826 6.6272C37.7031 6.57692 37.5715 6.55162 37.4387 6.55277C37.3059 6.55393 37.1747 6.58151 37.0527 6.63392C36.9307 6.68633 36.8203 6.76251 36.7281 6.85802V6.85802Z" fill="black"/>
<path d="M11.272 32.3132L9.85802 33.7282C9.76251 33.8205 9.68633 33.9308 9.63392 34.0528C9.58151 34.1748 9.55393 34.306 9.55277 34.4388C9.55162 34.5716 9.57692 34.7033 9.6272 34.8262C9.67748 34.9491 9.75173 35.0607 9.84563 35.1546C9.93952 35.2485 10.0512 35.3228 10.1741 35.373C10.297 35.4233 10.4286 35.4486 10.5614 35.4475C10.6942 35.4463 10.8254 35.4187 10.9474 35.3663C11.0694 35.3139 11.1798 35.2377 11.272 35.1422L12.686 33.7282C12.7789 33.6354 12.8526 33.5251 12.903 33.4038C12.9533 33.2825 12.9792 33.1524 12.9792 33.0211C12.9793 32.8897 12.9534 32.7596 12.9032 32.6383C12.853 32.5169 12.7794 32.4066 12.6865 32.3137C12.5937 32.2208 12.4834 32.1471 12.3621 32.0968C12.2408 32.0465 12.1107 32.0206 11.9794 32.0205C11.848 32.0205 11.718 32.0463 11.5966 32.0965C11.4752 32.1467 11.3649 32.2204 11.272 32.3132V32.3132Z" fill="black"/>
<path d="M24.0001 7C20.2883 7.00397 16.7296 8.48024 14.105 11.1049C11.4803 13.7295 10.0041 17.2882 10.0001 21C9.94595 22.9532 10.2943 24.8967 11.0236 26.7094C11.7529 28.5222 12.8474 30.1655 14.2391 31.537C15.1008 32.3491 15.7895 33.3269 16.264 34.4117C16.7384 35.4965 16.9888 36.666 17.0001 37.85V40C17.0027 40.6183 17.1962 41.2206 17.5542 41.7247C17.9122 42.2288 18.4172 42.6099 19.0001 42.816V43C19.0001 44.0609 19.4215 45.0783 20.1717 45.8284C20.9218 46.5786 21.9392 47 23.0001 47H25.0001C26.061 47 27.0784 46.5786 27.8285 45.8284C28.5787 45.0783 29.0001 44.0609 29.0001 43V42.816C29.583 42.6099 30.088 42.2288 30.446 41.7247C30.804 41.2206 30.9975 40.6183 31.0001 40V37.85C31.0114 36.666 31.2618 35.4965 31.7362 34.4117C32.2107 33.3269 32.8994 32.3491 33.7611 31.537C35.1528 30.1655 36.2473 28.5222 36.9766 26.7094C37.7059 24.8967 38.0543 22.9532 38.0001 21C37.9961 17.2882 36.5199 13.7295 33.8952 11.1049C31.2706 8.48024 27.7119 7.00397 24.0001 7ZM25.0001 45H23.0001C22.4697 45 21.961 44.7893 21.5859 44.4142C21.2108 44.0391 21.0001 43.5304 21.0001 43H27.0001C27.0001 43.5304 26.7894 44.0391 26.4143 44.4142C26.0392 44.7893 25.5305 45 25.0001 45ZM28.0001 41H20.0001C19.7349 41 19.4805 40.8946 19.293 40.7071C19.1055 40.5196 19.0001 40.2652 19.0001 40V39H29.0001V40C29.0001 40.2652 28.8947 40.5196 28.7072 40.7071C28.5197 40.8946 28.2653 41 28.0001 41ZM21.0001 28H20.0001C19.8023 28 19.609 27.9414 19.4445 27.8315C19.2801 27.7216 19.1519 27.5654 19.0762 27.3827C19.0005 27.2 18.9807 26.9989 19.0193 26.8049C19.0579 26.6109 19.1531 26.4327 19.293 26.2929C19.4328 26.153 19.611 26.0578 19.805 26.0192C19.999 25.9806 20.2001 26.0004 20.3828 26.0761C20.5655 26.1518 20.7217 26.28 20.8316 26.4444C20.9415 26.6089 21.0001 26.8022 21.0001 27V28ZM23.0001 30H25.0001V37H23.0001V30ZM32.3661 30.1C30.4534 31.9182 29.2691 34.3714 29.0351 37H27.0001V30H28.0001C28.5934 30 29.1735 29.8241 29.6668 29.4944C30.1602 29.1648 30.5447 28.6962 30.7717 28.1481C30.9988 27.5999 31.0582 26.9967 30.9425 26.4147C30.8267 25.8328 30.541 25.2982 30.1214 24.8787C29.7019 24.4591 29.1673 24.1734 28.5854 24.0576C28.0034 23.9419 27.4002 24.0013 26.852 24.2284C26.3039 24.4554 25.8353 24.8399 25.5057 25.3333C25.176 25.8266 25.0001 26.4067 25.0001 27V28H23.0001V27C23.0001 26.4067 22.8242 25.8266 22.4945 25.3333C22.1649 24.8399 21.6963 24.4554 21.1481 24.2284C20.6 24.0013 19.9968 23.9419 19.4148 24.0576C18.8329 24.1734 18.2983 24.4591 17.8788 24.8787C17.4592 25.2982 17.1735 25.8328 17.0577 26.4147C16.942 26.9967 17.0014 27.5999 17.2285 28.1481C17.4555 28.6962 17.84 29.1648 18.3334 29.4944C18.8267 29.8241 19.4068 30 20.0001 30H21.0001V37H18.9651C18.7311 34.3714 17.5468 31.9182 15.6341 30.1C14.4364 28.9137 13.4957 27.4935 12.8705 25.928C12.2454 24.3625 11.9491 22.685 12.0001 21C12.0001 17.8174 13.2644 14.7652 15.5148 12.5147C17.7653 10.2643 20.8175 9 24.0001 9C27.1827 9 30.2349 10.2643 32.4854 12.5147C34.7358 14.7652 36.0001 17.8174 36.0001 21C36.0511 22.685 35.7548 24.3625 35.1297 25.928C34.5045 27.4935 33.5638 28.9137 32.3661 30.1V30.1ZM27.0001 28V27C27.0001 26.8022 27.0587 26.6089 27.1686 26.4444C27.2785 26.28 27.4347 26.1518 27.6174 26.0761C27.8001 26.0004 28.0012 25.9806 28.1952 26.0192C28.3892 26.0578 28.5674 26.153 28.7072 26.2929C28.8471 26.4327 28.9423 26.6109 28.9809 26.8049C29.0195 26.9989 28.9997 27.2 28.924 27.3827C28.8483 27.5654 28.7201 27.7216 28.5557 27.8315C28.3912 27.9414 28.1979 28 28.0001 28H27.0001Z" fill="black"/>
</svg>
