<?xml version="1.0" encoding="UTF-8" standalone="no"?> <svg width="48" height="48" viewBox="0 0 48 48" fill="none" xmlns="http://www.w3.org/2000/svg">
<path d="M41 7H7C4.79086 7 3 8.79086 3 11V33C3 35.2091 4.79086 37 7 37H41C43.2091 37 45 35.2091 45 33V11C45 8.79086 43.2091 7 41 7Z" fill="#EAEFF0"/>
<path d="M4.389 7.99219C3.95465 8.36408 3.6057 8.82535 3.36598 9.34449C3.12626 9.86362 3.00143 10.4284 3 11.0002V33.0002C3 34.0611 3.42143 35.0785 4.17157 35.8286C4.92172 36.5788 5.93913 37.0002 7 37.0002H41C41.9619 36.9973 42.8898 36.6447 43.611 36.0082L4.389 7.99219Z" fill="#D9E1E2"/>
<path d="M32 31.1899V41.9999L35 39.9999L38 41.9999V31.1899H32Z" fill="#FD3730"/>
<path d="M32 37.1909C32.911 37.7208 33.9461 37.9999 35 37.9999C36.0539 37.9999 37.089 37.7208 38 37.1909V31.1909H32V37.1909Z" fill="#D3241F"/>
<path d="M35 36C38.3137 36 41 33.3137 41 30C41 26.6863 38.3137 24 35 24C31.6863 24 29 26.6863 29 30C29 33.3137 31.6863 36 35 36Z" fill="#FF9500"/>
<path d="M35 32.5C36.3807 32.5 37.5 31.3807 37.5 30C37.5 28.6193 36.3807 27.5 35 27.5C33.6193 27.5 32.5 28.6193 32.5 30C32.5 31.3807 33.6193 32.5 35 32.5Z" fill="#FAC100"/>
<path d="M41 6H7C5.6744 6.00159 4.40356 6.52888 3.46622 7.46622C2.52888 8.40356 2.00159 9.6744 2 11V33C2.00159 34.3256 2.52888 35.5964 3.46622 36.5338C4.40356 37.4711 5.6744 37.9984 7 38H31V42C31 42.181 31.0491 42.3587 31.1421 42.514C31.2352 42.6693 31.3686 42.7965 31.5282 42.8819C31.6879 42.9673 31.8677 43.0078 32.0485 42.999C32.2293 42.9902 32.4044 42.9325 32.555 42.832L35 41.2L37.445 42.83C37.5955 42.9304 37.7703 42.9881 37.951 42.9969C38.1316 43.0058 38.3113 42.9655 38.4709 42.8803C38.6305 42.7952 38.7639 42.6683 38.8571 42.5133C38.9503 42.3583 38.9997 42.1809 39 42V38H41C42.3256 37.9984 43.5964 37.4711 44.5338 36.5338C45.4711 35.5964 45.9984 34.3256 46 33V11C45.9984 9.6744 45.4711 8.40356 44.5338 7.46622C43.5964 6.52888 42.3256 6.00159 41 6V6ZM35 35C34.0111 35 33.0444 34.7068 32.2221 34.1573C31.3999 33.6079 30.759 32.827 30.3806 31.9134C30.0022 30.9998 29.9031 29.9945 30.0961 29.0245C30.289 28.0546 30.7652 27.1637 31.4645 26.4645C32.1637 25.7652 33.0546 25.289 34.0245 25.0961C34.9945 24.9031 35.9998 25.0022 36.9134 25.3806C37.827 25.759 38.6079 26.3999 39.1573 27.2221C39.7068 28.0444 40 29.0111 40 30C39.9984 31.3256 39.4711 32.5964 38.5338 33.5338C37.5964 34.4711 36.3256 34.9984 35 35V35ZM35.555 39.168C35.3907 39.0584 35.1975 38.9999 35 38.9999C34.8025 38.9999 34.6093 39.0584 34.445 39.168L33 40.131V36.705C34.3043 37.0983 35.6957 37.0983 37 36.705V40.131L35.555 39.168ZM44 33C44 33.7956 43.6839 34.5587 43.1213 35.1213C42.5587 35.6839 41.7956 36 41 36H39V35.736C40.223 34.8844 41.1423 33.6648 41.6241 32.2545C42.1059 30.8443 42.125 29.3171 41.6788 27.8952C41.2325 26.4734 40.3441 25.231 39.1429 24.349C37.9416 23.467 36.4903 22.9914 35 22.9914C33.5097 22.9914 32.0584 23.467 30.8571 24.349C29.6559 25.231 28.7675 26.4734 28.3212 27.8952C27.875 29.3171 27.8941 30.8443 28.3759 32.2545C28.8577 33.6648 29.777 34.8844 31 35.736V36H7C6.20435 36 5.44129 35.6839 4.87868 35.1213C4.31607 34.5587 4 33.7956 4 33V11C4 10.2044 4.31607 9.44129 4.87868 8.87868C5.44129 8.31607 6.20435 8 7 8H41C41.7956 8 42.5587 8.31607 43.1213 8.87868C43.6839 9.44129 44 10.2044 44 11V33Z" fill="black"/>
<path d="M9 14H20C20.2652 14 20.5196 13.8946 20.7071 13.7071C20.8946 13.5196 21 13.2652 21 13C21 12.7348 20.8946 12.4804 20.7071 12.2929C20.5196 12.1054 20.2652 12 20 12H9C8.73478 12 8.48043 12.1054 8.29289 12.2929C8.10536 12.4804 8 12.7348 8 13C8 13.2652 8.10536 13.5196 8.29289 13.7071C8.48043 13.8946 8.73478 14 9 14V14Z" fill="black"/>
<path d="M37 18H9C8.73478 18 8.48043 18.1054 8.29289 18.2929C8.10536 18.4804 8 18.7348 8 19C8 19.2652 8.10536 19.5196 8.29289 19.7071C8.48043 19.8946 8.73478 20 9 20H37C37.2652 20 37.5196 19.8946 37.7071 19.7071C37.8946 19.5196 38 19.2652 38 19C38 18.7348 37.8946 18.4804 37.7071 18.2929C37.5196 18.1054 37.2652 18 37 18Z" fill="black"/>
<path d="M24 28H9C8.73478 28 8.48043 28.1054 8.29289 28.2929C8.10536 28.4804 8 28.7348 8 29C8 29.2652 8.10536 29.5196 8.29289 29.7071C8.48043 29.8946 8.73478 30 9 30H24C24.2652 30 24.5196 29.8946 24.7071 29.7071C24.8946 29.5196 25 29.2652 25 29C25 28.7348 24.8946 28.4804 24.7071 28.2929C24.5196 28.1054 24.2652 28 24 28Z" fill="black"/>
<path d="M26 23H9C8.73478 23 8.48043 23.1054 8.29289 23.2929C8.10536 23.4804 8 23.7348 8 24C8 24.2652 8.10536 24.5196 8.29289 24.7071C8.48043 24.8946 8.73478 25 9 25H26C26.2652 25 26.5196 24.8946 26.7071 24.7071C26.8946 24.5196 27 24.2652 27 24C27 23.7348 26.8946 23.4804 26.7071 23.2929C26.5196 23.1054 26.2652 23 26 23Z" fill="black"/>
</svg>
